<svg xmlns="http://www.w3.org/2000/svg" xmlns:xlink="http://www.w3.org/1999/xlink" xmlns:serif="http://www.serif.com/" viewBox="0 0 100 125" version="1.1" xml:space="preserve" style="" x="0px" y="0px" fill-rule="evenodd" clip-rule="evenodd" stroke-linejoin="round" stroke-miterlimit="2"><rect serif:id="39 - quilt" x="0" y="0" width="100" height="100" style="" fill="none"/><g><path d="M8.229,5.988c-0.014,-0.535 -0.451,-0.962 -0.987,-0.962l-1.229,-0c-0.266,-0 -0.521,0.108 -0.707,0.298c-0.186,0.191 -0.287,0.449 -0.28,0.715c0.061,2.348 0.211,8.135 0.271,10.432c0.014,0.535 0.452,0.962 0.987,0.962l1.229,-0c0.266,-0 0.521,-0.108 0.707,-0.299c0.186,-0.19 0.287,-0.448 0.28,-0.714c-0.061,-2.348 -0.211,-8.135 -0.271,-10.432Z"/><path d="M12.806,6.013c-0,-0.545 -0.443,-0.987 -0.988,-0.987l-1.229,-0c-0.546,-0 -0.988,0.442 -0.988,0.987l0,10.432c0,0.545 0.442,0.988 0.988,0.988l1.229,-0c0.545,-0 0.988,-0.443 0.988,-0.988l-0,-10.432Z"/><path d="M14.177,5.988c0.014,-0.535 0.452,-0.962 0.987,-0.962l1.229,-0c0.267,-0 0.522,0.108 0.707,0.298c0.186,0.191 0.287,0.449 0.28,0.715c-0.061,2.348 -0.211,8.135 -0.27,10.432c-0.014,0.535 -0.452,0.962 -0.987,0.962l-1.229,-0c-0.267,-0 -0.522,-0.108 -0.707,-0.299c-0.186,-0.19 -0.287,-0.448 -0.28,-0.714c0.061,-2.348 0.211,-8.135 0.27,-10.432Z"/><path d="M8.229,68.021c-0.014,-0.535 -0.451,-0.962 -0.987,-0.962l-1.229,0c-0.266,0 -0.521,0.108 -0.707,0.298c-0.186,0.191 -0.287,0.449 -0.28,0.715c0.061,2.348 0.211,8.135 0.271,10.432c0.014,0.535 0.452,0.962 0.987,0.962l1.229,-0c0.266,-0 0.521,-0.108 0.707,-0.299c0.186,-0.19 0.287,-0.448 0.28,-0.714c-0.061,-2.348 -0.211,-8.135 -0.271,-10.432Z"/><path d="M12.806,68.047c-0,-0.546 -0.443,-0.988 -0.988,-0.988l-1.229,0c-0.546,0 -0.988,0.442 -0.988,0.988l0,10.431c0,0.546 0.442,0.988 0.988,0.988l1.229,-0c0.545,-0 0.988,-0.442 0.988,-0.988l-0,-10.431Z"/><path d="M14.177,68.021c0.014,-0.535 0.452,-0.962 0.987,-0.962l1.229,0c0.267,0 0.522,0.108 0.707,0.298c0.186,0.191 0.287,0.449 0.28,0.715c-0.061,2.348 -0.211,8.135 -0.27,10.432c-0.014,0.535 -0.452,0.962 -0.987,0.962l-1.229,-0c-0.267,-0 -0.522,-0.108 -0.707,-0.299c-0.186,-0.19 -0.287,-0.448 -0.28,-0.714c0.061,-2.348 0.211,-8.135 0.27,-10.432Z"/><path d="M70.314,5.988c-0.013,-0.535 -0.451,-0.962 -0.987,-0.962l-1.229,-0c-0.266,-0 -0.521,0.108 -0.707,0.298c-0.186,0.191 -0.287,0.449 -0.28,0.715c0.061,2.348 0.211,8.135 0.271,10.432c0.014,0.535 0.452,0.962 0.987,0.962l1.229,-0c0.266,-0 0.521,-0.108 0.707,-0.299c0.186,-0.19 0.287,-0.448 0.28,-0.714c-0.061,-2.348 -0.211,-8.135 -0.271,-10.432Z"/><path d="M74.891,6.013c-0,-0.545 -0.443,-0.987 -0.988,-0.987l-1.229,-0c-0.546,-0 -0.988,0.442 -0.988,0.987l0,10.432c0,0.545 0.442,0.988 0.988,0.988l1.229,-0c0.545,-0 0.988,-0.443 0.988,-0.988l-0,-10.432Z"/><path d="M76.262,5.988c0.014,-0.535 0.452,-0.962 0.987,-0.962l1.229,-0c0.267,-0 0.522,0.108 0.708,0.298c0.185,0.191 0.286,0.449 0.279,0.715c-0.06,2.348 -0.211,8.135 -0.27,10.432c-0.014,0.535 -0.452,0.962 -0.987,0.962l-1.229,-0c-0.266,-0 -0.521,-0.108 -0.707,-0.299c-0.186,-0.19 -0.287,-0.448 -0.28,-0.714c0.061,-2.348 0.211,-8.135 0.27,-10.432Z"/><path d="M70.314,68.021c-0.013,-0.535 -0.451,-0.962 -0.987,-0.962l-1.229,0c-0.266,0 -0.521,0.108 -0.707,0.298c-0.186,0.191 -0.287,0.449 -0.28,0.715c0.061,2.348 0.211,8.135 0.271,10.432c0.014,0.535 0.452,0.962 0.987,0.962l1.229,-0c0.266,-0 0.521,-0.108 0.707,-0.299c0.186,-0.19 0.287,-0.448 0.28,-0.714c-0.061,-2.348 -0.211,-8.135 -0.271,-10.432Z"/><path d="M74.891,68.047c-0,-0.546 -0.443,-0.988 -0.988,-0.988l-1.229,0c-0.546,0 -0.988,0.442 -0.988,0.988l0,10.431c0,0.546 0.442,0.988 0.988,0.988l1.229,-0c0.545,-0 0.988,-0.442 0.988,-0.988l-0,-10.431Z"/><path d="M76.262,68.021c0.014,-0.535 0.452,-0.962 0.987,-0.962l1.229,0c0.267,0 0.522,0.108 0.708,0.298c0.185,0.191 0.286,0.449 0.279,0.715c-0.06,2.348 -0.211,8.135 -0.27,10.432c-0.014,0.535 -0.452,0.962 -0.987,0.962l-1.229,-0c-0.266,-0 -0.521,-0.108 -0.707,-0.299c-0.186,-0.19 -0.287,-0.448 -0.28,-0.714c0.061,-2.348 0.211,-8.135 0.27,-10.432Z"/><path d="M8.229,37.03c-0.014,-0.535 -0.451,-0.962 -0.987,-0.962l-1.229,0c-0.266,0 -0.521,0.108 -0.707,0.299c-0.186,0.191 -0.287,0.448 -0.28,0.715c0.061,2.347 0.211,8.135 0.271,10.431c0.014,0.535 0.452,0.962 0.987,0.962l1.229,0c0.266,0 0.521,-0.107 0.707,-0.298c0.186,-0.191 0.287,-0.449 0.28,-0.715c-0.061,-2.348 -0.211,-8.135 -0.271,-10.432Z"/><path d="M12.806,37.056c-0,-0.545 -0.443,-0.988 -0.988,-0.988l-1.229,0c-0.546,0 -0.988,0.443 -0.988,0.988l0,10.432c0,0.545 0.442,0.987 0.988,0.987l1.229,0c0.545,0 0.988,-0.442 0.988,-0.987l-0,-10.432Z"/><path d="M14.177,37.03c0.014,-0.535 0.452,-0.962 0.987,-0.962l1.229,0c0.267,0 0.522,0.108 0.707,0.299c0.186,0.191 0.287,0.448 0.28,0.715c-0.061,2.347 -0.211,8.135 -0.27,10.431c-0.014,0.535 -0.452,0.962 -0.987,0.962l-1.229,0c-0.267,0 -0.522,-0.107 -0.707,-0.298c-0.186,-0.191 -0.287,-0.449 -0.28,-0.715c0.061,-2.348 0.211,-8.135 0.27,-10.432Z"/><path d="M70.314,37.03c-0.013,-0.535 -0.451,-0.962 -0.987,-0.962l-1.229,0c-0.266,0 -0.521,0.108 -0.707,0.299c-0.186,0.191 -0.287,0.448 -0.28,0.715c0.061,2.347 0.211,8.135 0.271,10.431c0.014,0.535 0.452,0.962 0.987,0.962l1.229,0c0.266,0 0.521,-0.107 0.707,-0.298c0.186,-0.191 0.287,-0.449 0.28,-0.715c-0.061,-2.348 -0.211,-8.135 -0.271,-10.432Z"/><path d="M74.891,37.056c-0,-0.545 -0.443,-0.988 -0.988,-0.988l-1.229,0c-0.546,0 -0.988,0.443 -0.988,0.988l0,10.432c0,0.545 0.442,0.987 0.988,0.987l1.229,0c0.545,0 0.988,-0.442 0.988,-0.987l-0,-10.432Z"/><path d="M76.262,37.03c0.014,-0.535 0.452,-0.962 0.987,-0.962l1.229,0c0.267,0 0.522,0.108 0.708,0.299c0.185,0.191 0.286,0.448 0.279,0.715c-0.06,2.347 -0.211,8.135 -0.27,10.431c-0.014,0.535 -0.452,0.962 -0.987,0.962l-1.229,0c-0.266,0 -0.521,-0.107 -0.707,-0.298c-0.186,-0.191 -0.287,-0.449 -0.28,-0.715c0.061,-2.348 0.211,-8.135 0.27,-10.432Z"/><path d="M39.272,5.988c-0.014,-0.535 -0.452,-0.962 -0.987,-0.962l-1.229,-0c-0.266,-0 -0.521,0.108 -0.707,0.298c-0.186,0.191 -0.287,0.449 -0.28,0.715c0.061,2.348 0.211,8.135 0.27,10.432c0.014,0.535 0.452,0.962 0.987,0.962l1.229,-0c0.267,-0 0.522,-0.108 0.708,-0.299c0.185,-0.19 0.286,-0.448 0.279,-0.714c-0.06,-2.348 -0.211,-8.135 -0.27,-10.432Z"/><path d="M43.848,6.013c0,-0.545 -0.442,-0.987 -0.987,-0.987l-1.23,-0c-0.545,-0 -0.987,0.442 -0.987,0.987l-0,10.432c-0,0.545 0.442,0.988 0.987,0.988l1.23,-0c0.545,-0 0.987,-0.443 0.987,-0.988l0,-10.432Z"/><path d="M45.22,5.988c0.014,-0.535 0.452,-0.962 0.987,-0.962l1.229,-0c0.266,-0 0.521,0.108 0.707,0.298c0.186,0.191 0.287,0.449 0.28,0.715c-0.061,2.348 -0.211,8.135 -0.271,10.432c-0.014,0.535 -0.451,0.962 -0.987,0.962l-1.229,-0c-0.266,-0 -0.521,-0.108 -0.707,-0.299c-0.186,-0.19 -0.287,-0.448 -0.28,-0.714c0.061,-2.348 0.211,-8.135 0.271,-10.432Z"/><path d="M39.272,68.021c-0.014,-0.535 -0.452,-0.962 -0.987,-0.962l-1.229,0c-0.266,0 -0.521,0.108 -0.707,0.298c-0.186,0.191 -0.287,0.449 -0.28,0.715c0.061,2.348 0.211,8.135 0.27,10.432c0.014,0.535 0.452,0.962 0.987,0.962l1.229,-0c0.267,-0 0.522,-0.108 0.708,-0.299c0.185,-0.19 0.286,-0.448 0.279,-0.714c-0.06,-2.348 -0.211,-8.135 -0.27,-10.432Z"/><path d="M43.848,68.047c0,-0.546 -0.442,-0.988 -0.987,-0.988l-1.23,0c-0.545,0 -0.987,0.442 -0.987,0.988l-0,10.431c-0,0.546 0.442,0.988 0.987,0.988l1.23,-0c0.545,-0 0.987,-0.442 0.987,-0.988l0,-10.431Z"/><path d="M45.22,68.021c0.014,-0.535 0.452,-0.962 0.987,-0.962l1.229,0c0.266,0 0.521,0.108 0.707,0.298c0.186,0.191 0.287,0.449 0.28,0.715c-0.061,2.348 -0.211,8.135 -0.271,10.432c-0.014,0.535 -0.451,0.962 -0.987,0.962l-1.229,-0c-0.266,-0 -0.521,-0.108 -0.707,-0.299c-0.186,-0.19 -0.287,-0.448 -0.28,-0.714c0.061,-2.348 0.211,-8.135 0.271,-10.432Z"/><path d="M39.272,37.03c-0.014,-0.535 -0.452,-0.962 -0.987,-0.962l-1.229,0c-0.266,0 -0.521,0.108 -0.707,0.299c-0.186,0.191 -0.287,0.448 -0.28,0.715c0.061,2.347 0.211,8.135 0.27,10.431c0.014,0.535 0.452,0.962 0.987,0.962l1.229,0c0.267,0 0.522,-0.107 0.708,-0.298c0.185,-0.191 0.286,-0.449 0.279,-0.715c-0.06,-2.348 -0.211,-8.135 -0.27,-10.432Z"/><path d="M43.848,37.056c0,-0.545 -0.442,-0.988 -0.987,-0.988l-1.23,0c-0.545,0 -0.987,0.443 -0.987,0.988l-0,10.432c-0,0.545 0.442,0.987 0.987,0.987l1.23,0c0.545,0 0.987,-0.442 0.987,-0.987l0,-10.432Z"/><path d="M45.22,37.03c0.014,-0.535 0.452,-0.962 0.987,-0.962l1.229,0c0.266,0 0.521,0.108 0.707,0.299c0.186,0.191 0.287,0.448 0.28,0.715c-0.061,2.347 -0.211,8.135 -0.271,10.431c-0.014,0.535 -0.451,0.962 -0.987,0.962l-1.229,0c-0.266,0 -0.521,-0.107 -0.707,-0.298c-0.186,-0.191 -0.287,-0.449 -0.28,-0.715c0.061,-2.348 0.211,-8.135 0.271,-10.432Z"/><path d="M29.686,31.979c0.013,0.535 0.451,0.962 0.987,0.962l1.229,-0c0.266,-0 0.521,-0.108 0.707,-0.298c0.186,-0.191 0.287,-0.449 0.28,-0.715c-0.061,-2.348 -0.211,-8.135 -0.271,-10.432c-0.014,-0.535 -0.452,-0.962 -0.987,-0.962l-1.229,0c-0.266,0 -0.521,0.108 -0.707,0.299c-0.186,0.19 -0.287,0.448 -0.28,0.714c0.061,2.348 0.211,8.135 0.271,10.432Z"/><path d="M25.109,31.953c0,0.546 0.443,0.988 0.988,0.988l1.229,-0c0.546,-0 0.988,-0.442 0.988,-0.988l-0,-10.431c-0,-0.546 -0.442,-0.988 -0.988,-0.988l-1.229,0c-0.545,0 -0.988,0.442 -0.988,0.988l0,10.431Z"/><path d="M23.738,31.979c-0.014,0.535 -0.452,0.962 -0.987,0.962l-1.229,-0c-0.267,-0 -0.522,-0.108 -0.708,-0.298c-0.185,-0.191 -0.286,-0.449 -0.279,-0.715c0.06,-2.348 0.211,-8.135 0.27,-10.432c0.014,-0.535 0.452,-0.962 0.987,-0.962l1.229,0c0.266,0 0.521,0.108 0.707,0.299c0.186,0.19 0.287,0.448 0.28,0.714c-0.061,2.348 -0.211,8.135 -0.27,10.432Z"/><path d="M29.686,94.012c0.013,0.535 0.451,0.962 0.987,0.962l1.229,0c0.266,0 0.521,-0.108 0.707,-0.298c0.186,-0.191 0.287,-0.449 0.28,-0.715c-0.061,-2.348 -0.211,-8.135 -0.271,-10.432c-0.014,-0.535 -0.452,-0.962 -0.987,-0.962l-1.229,0c-0.266,0 -0.521,0.108 -0.707,0.299c-0.186,0.19 -0.287,0.448 -0.28,0.714c0.061,2.348 0.211,8.135 0.271,10.432Z"/><path d="M25.109,93.987c0,0.545 0.443,0.987 0.988,0.987l1.229,0c0.546,0 0.988,-0.442 0.988,-0.987l-0,-10.432c-0,-0.545 -0.442,-0.988 -0.988,-0.988l-1.229,0c-0.545,0 -0.988,0.443 -0.988,0.988l0,10.432Z"/><path d="M23.738,94.012c-0.014,0.535 -0.452,0.962 -0.987,0.962l-1.229,0c-0.267,0 -0.522,-0.108 -0.708,-0.298c-0.185,-0.191 -0.286,-0.449 -0.279,-0.715c0.06,-2.348 0.211,-8.135 0.27,-10.432c0.014,-0.535 0.452,-0.962 0.987,-0.962l1.229,0c0.266,0 0.521,0.108 0.707,0.299c0.186,0.19 0.287,0.448 0.28,0.714c-0.061,2.348 -0.211,8.135 -0.27,10.432Z"/><path d="M91.771,31.979c0.014,0.535 0.451,0.962 0.987,0.962l1.229,-0c0.266,-0 0.521,-0.108 0.707,-0.298c0.186,-0.191 0.287,-0.449 0.28,-0.715c-0.061,-2.348 -0.211,-8.135 -0.271,-10.432c-0.014,-0.535 -0.452,-0.962 -0.987,-0.962l-1.229,0c-0.266,0 -0.521,0.108 -0.707,0.299c-0.186,0.19 -0.287,0.448 -0.28,0.714c0.061,2.348 0.211,8.135 0.271,10.432Z"/><path d="M87.194,31.953c0,0.546 0.443,0.988 0.988,0.988l1.229,-0c0.546,-0 0.988,-0.442 0.988,-0.988l-0,-10.431c-0,-0.546 -0.442,-0.988 -0.988,-0.988l-1.229,0c-0.545,0 -0.988,0.442 -0.988,0.988l0,10.431Z"/><path d="M85.823,31.979c-0.014,0.535 -0.452,0.962 -0.987,0.962l-1.229,-0c-0.267,-0 -0.522,-0.108 -0.707,-0.298c-0.186,-0.191 -0.287,-0.449 -0.28,-0.715c0.061,-2.348 0.211,-8.135 0.27,-10.432c0.014,-0.535 0.452,-0.962 0.987,-0.962l1.229,0c0.267,0 0.522,0.108 0.707,0.299c0.186,0.19 0.287,0.448 0.28,0.714c-0.061,2.348 -0.211,8.135 -0.27,10.432Z"/><path d="M91.771,94.012c0.014,0.535 0.451,0.962 0.987,0.962l1.229,0c0.266,0 0.521,-0.108 0.707,-0.298c0.186,-0.191 0.287,-0.449 0.28,-0.715c-0.061,-2.348 -0.211,-8.135 -0.271,-10.432c-0.014,-0.535 -0.452,-0.962 -0.987,-0.962l-1.229,0c-0.266,0 -0.521,0.108 -0.707,0.299c-0.186,0.19 -0.287,0.448 -0.28,0.714c0.061,2.348 0.211,8.135 0.271,10.432Z"/><path d="M87.194,93.987c0,0.545 0.443,0.987 0.988,0.987l1.229,0c0.546,0 0.988,-0.442 0.988,-0.987l-0,-10.432c-0,-0.545 -0.442,-0.988 -0.988,-0.988l-1.229,0c-0.545,0 -0.988,0.443 -0.988,0.988l0,10.432Z"/><path d="M85.823,94.012c-0.014,0.535 -0.452,0.962 -0.987,0.962l-1.229,0c-0.267,0 -0.522,-0.108 -0.707,-0.298c-0.186,-0.191 -0.287,-0.449 -0.28,-0.715c0.061,-2.348 0.211,-8.135 0.27,-10.432c0.014,-0.535 0.452,-0.962 0.987,-0.962l1.229,0c0.267,0 0.522,0.108 0.707,0.299c0.186,0.19 0.287,0.448 0.28,0.714c-0.061,2.348 -0.211,8.135 -0.27,10.432Z"/><path d="M29.686,63.022c0.013,0.535 0.451,0.961 0.987,0.961l1.229,0c0.266,0 0.521,-0.107 0.707,-0.298c0.186,-0.191 0.287,-0.448 0.28,-0.715c-0.061,-2.347 -0.211,-8.135 -0.271,-10.431c-0.014,-0.536 -0.452,-0.962 -0.987,-0.962l-1.229,-0c-0.266,-0 -0.521,0.107 -0.707,0.298c-0.186,0.191 -0.287,0.449 -0.28,0.715c0.061,2.348 0.211,8.135 0.271,10.432Z"/><path d="M25.109,62.996c0,0.545 0.443,0.987 0.988,0.987l1.229,0c0.546,0 0.988,-0.442 0.988,-0.987l-0,-10.432c-0,-0.545 -0.442,-0.987 -0.988,-0.987l-1.229,-0c-0.545,-0 -0.988,0.442 -0.988,0.987l0,10.432Z"/><path d="M23.738,63.022c-0.014,0.535 -0.452,0.961 -0.987,0.961l-1.229,0c-0.267,0 -0.522,-0.107 -0.708,-0.298c-0.185,-0.191 -0.286,-0.448 -0.279,-0.715c0.06,-2.347 0.211,-8.135 0.27,-10.431c0.014,-0.536 0.452,-0.962 0.987,-0.962l1.229,-0c0.266,-0 0.521,0.107 0.707,0.298c0.186,0.191 0.287,0.449 0.28,0.715c-0.061,2.348 -0.211,8.135 -0.27,10.432Z"/><path d="M91.771,63.022c0.014,0.535 0.451,0.961 0.987,0.961l1.229,0c0.266,0 0.521,-0.107 0.707,-0.298c0.186,-0.191 0.287,-0.448 0.28,-0.715c-0.061,-2.347 -0.211,-8.135 -0.271,-10.431c-0.014,-0.536 -0.452,-0.962 -0.987,-0.962l-1.229,-0c-0.266,-0 -0.521,0.107 -0.707,0.298c-0.186,0.191 -0.287,0.449 -0.28,0.715c0.061,2.348 0.211,8.135 0.271,10.432Z"/><path d="M87.194,62.996c0,0.545 0.443,0.987 0.988,0.987l1.229,0c0.546,0 0.988,-0.442 0.988,-0.987l-0,-10.432c-0,-0.545 -0.442,-0.987 -0.988,-0.987l-1.229,-0c-0.545,-0 -0.988,0.442 -0.988,0.987l0,10.432Z"/><path d="M85.823,63.022c-0.014,0.535 -0.452,0.961 -0.987,0.961l-1.229,0c-0.267,0 -0.522,-0.107 -0.707,-0.298c-0.186,-0.191 -0.287,-0.448 -0.28,-0.715c0.061,-2.347 0.211,-8.135 0.27,-10.431c0.014,-0.536 0.452,-0.962 0.987,-0.962l1.229,-0c0.267,-0 0.522,0.107 0.707,0.298c0.186,0.191 0.287,0.449 0.28,0.715c-0.061,2.348 -0.211,8.135 -0.27,10.432Z"/><path d="M60.728,31.979c0.014,0.535 0.452,0.962 0.987,0.962l1.229,-0c0.266,-0 0.521,-0.108 0.707,-0.298c0.186,-0.191 0.287,-0.449 0.28,-0.715c-0.061,-2.348 -0.211,-8.135 -0.27,-10.432c-0.014,-0.535 -0.452,-0.962 -0.987,-0.962l-1.229,0c-0.267,0 -0.522,0.108 -0.708,0.299c-0.185,0.19 -0.286,0.448 -0.279,0.714c0.06,2.348 0.211,8.135 0.27,10.432Z"/><path d="M56.152,31.953c-0,0.546 0.442,0.988 0.987,0.988l1.23,-0c0.545,-0 0.987,-0.442 0.987,-0.988l0,-10.431c0,-0.546 -0.442,-0.988 -0.987,-0.988l-1.23,0c-0.545,0 -0.987,0.442 -0.987,0.988l-0,10.431Z"/><path d="M54.78,31.979c-0.014,0.535 -0.452,0.962 -0.987,0.962l-1.229,-0c-0.266,-0 -0.521,-0.108 -0.707,-0.298c-0.186,-0.191 -0.287,-0.449 -0.28,-0.715c0.061,-2.348 0.211,-8.135 0.271,-10.432c0.014,-0.535 0.451,-0.962 0.987,-0.962l1.229,0c0.266,0 0.521,0.108 0.707,0.299c0.186,0.19 0.287,0.448 0.28,0.714c-0.061,2.348 -0.211,8.135 -0.271,10.432Z"/><path d="M60.728,94.012c0.014,0.535 0.452,0.962 0.987,0.962l1.229,0c0.266,0 0.521,-0.108 0.707,-0.298c0.186,-0.191 0.287,-0.449 0.28,-0.715c-0.061,-2.348 -0.211,-8.135 -0.27,-10.432c-0.014,-0.535 -0.452,-0.962 -0.987,-0.962l-1.229,0c-0.267,0 -0.522,0.108 -0.708,0.299c-0.185,0.19 -0.286,0.448 -0.279,0.714c0.06,2.348 0.211,8.135 0.27,10.432Z"/><path d="M56.152,93.987c-0,0.545 0.442,0.987 0.987,0.987l1.23,0c0.545,0 0.987,-0.442 0.987,-0.987l0,-10.432c0,-0.545 -0.442,-0.988 -0.987,-0.988l-1.23,0c-0.545,0 -0.987,0.443 -0.987,0.988l-0,10.432Z"/><path d="M54.78,94.012c-0.014,0.535 -0.452,0.962 -0.987,0.962l-1.229,0c-0.266,0 -0.521,-0.108 -0.707,-0.298c-0.186,-0.191 -0.287,-0.449 -0.28,-0.715c0.061,-2.348 0.211,-8.135 0.271,-10.432c0.014,-0.535 0.451,-0.962 0.987,-0.962l1.229,0c0.266,0 0.521,0.108 0.707,0.299c0.186,0.19 0.287,0.448 0.28,0.714c-0.061,2.348 -0.211,8.135 -0.271,10.432Z"/><path d="M60.728,63.022c0.014,0.535 0.452,0.961 0.987,0.961l1.229,0c0.266,0 0.521,-0.107 0.707,-0.298c0.186,-0.191 0.287,-0.448 0.28,-0.715c-0.061,-2.347 -0.211,-8.135 -0.27,-10.431c-0.014,-0.536 -0.452,-0.962 -0.987,-0.962l-1.229,-0c-0.267,-0 -0.522,0.107 -0.708,0.298c-0.185,0.191 -0.286,0.449 -0.279,0.715c0.06,2.348 0.211,8.135 0.27,10.432Z"/><path d="M56.152,62.996c-0,0.545 0.442,0.987 0.987,0.987l1.23,0c0.545,0 0.987,-0.442 0.987,-0.987l0,-10.432c0,-0.545 -0.442,-0.987 -0.987,-0.987l-1.23,-0c-0.545,-0 -0.987,0.442 -0.987,0.987l-0,10.432Z"/><path d="M54.78,63.022c-0.014,0.535 -0.452,0.961 -0.987,0.961l-1.229,0c-0.266,0 -0.521,-0.107 -0.707,-0.298c-0.186,-0.191 -0.287,-0.448 -0.28,-0.715c0.061,-2.347 0.211,-8.135 0.271,-10.431c0.014,-0.536 0.451,-0.962 0.987,-0.962l1.229,-0c0.266,-0 0.521,0.107 0.707,0.298c0.186,0.191 0.287,0.449 0.28,0.715c-0.061,2.348 -0.211,8.135 -0.271,10.432Z"/><path d="M31.953,8.255c0.535,-0.014 0.962,-0.451 0.962,-0.987l-0,-1.229c-0,-0.266 -0.108,-0.521 -0.298,-0.707c-0.191,-0.186 -0.449,-0.287 -0.715,-0.28c-2.348,0.061 -8.135,0.211 -10.432,0.271c-0.535,0.014 -0.962,0.452 -0.962,0.987l0,1.229c0,0.266 0.108,0.521 0.299,0.707c0.19,0.186 0.448,0.287 0.714,0.28c2.348,-0.061 8.135,-0.211 10.432,-0.271Z"/><path d="M31.928,12.831c0.545,0 0.987,-0.442 0.987,-0.987l-0,-1.23c-0,-0.545 -0.442,-0.987 -0.987,-0.987l-10.432,0c-0.546,0 -0.988,0.442 -0.988,0.987l0,1.23c0,0.545 0.442,0.987 0.988,0.987l10.432,0Z"/><path d="M31.953,14.203c0.535,0.014 0.962,0.452 0.962,0.987l-0,1.229c-0,0.267 -0.108,0.522 -0.298,0.707c-0.191,0.186 -0.449,0.287 -0.715,0.28c-2.348,-0.061 -8.135,-0.211 -10.432,-0.27c-0.535,-0.014 -0.962,-0.452 -0.962,-0.987l0,-1.229c0,-0.267 0.108,-0.522 0.299,-0.707c0.19,-0.186 0.448,-0.287 0.714,-0.28c2.348,0.061 8.135,0.211 10.432,0.27Z"/><path d="M31.953,70.288c0.535,-0.013 0.962,-0.451 0.962,-0.987l-0,-1.229c-0,-0.266 -0.108,-0.521 -0.298,-0.707c-0.191,-0.186 -0.449,-0.287 -0.715,-0.28c-2.348,0.061 -8.135,0.211 -10.432,0.271c-0.535,0.014 -0.962,0.452 -0.962,0.987l0,1.229c0,0.266 0.108,0.521 0.299,0.707c0.19,0.186 0.448,0.287 0.714,0.28c2.348,-0.061 8.135,-0.211 10.432,-0.271Z"/><path d="M31.928,74.865c0.545,-0 0.987,-0.442 0.987,-0.988l-0,-1.229c-0,-0.546 -0.442,-0.988 -0.987,-0.988l-10.432,0c-0.546,0 -0.988,0.442 -0.988,0.988l0,1.229c0,0.546 0.442,0.988 0.988,0.988l10.432,-0Z"/><path d="M31.953,76.236c0.535,0.014 0.962,0.452 0.962,0.988l-0,1.228c-0,0.267 -0.108,0.522 -0.298,0.708c-0.191,0.185 -0.449,0.286 -0.715,0.279c-2.348,-0.06 -8.135,-0.211 -10.432,-0.27c-0.535,-0.014 -0.962,-0.452 -0.962,-0.987l0,-1.229c0,-0.266 0.108,-0.521 0.299,-0.707c0.19,-0.186 0.448,-0.287 0.714,-0.28c2.348,0.061 8.135,0.211 10.432,0.27Z"/><path d="M94.038,8.255c0.535,-0.014 0.962,-0.451 0.962,-0.987l0,-1.229c-0,-0.266 -0.108,-0.521 -0.298,-0.707c-0.191,-0.186 -0.449,-0.287 -0.715,-0.28c-2.348,0.061 -8.135,0.211 -10.432,0.271c-0.535,0.014 -0.962,0.452 -0.962,0.987l0,1.229c0,0.266 0.108,0.521 0.299,0.707c0.19,0.186 0.448,0.287 0.714,0.28c2.348,-0.061 8.135,-0.211 10.432,-0.271Z"/><path d="M94.013,12.831c0.545,0 0.987,-0.442 0.987,-0.987l0,-1.23c-0,-0.545 -0.442,-0.987 -0.987,-0.987l-10.432,0c-0.546,0 -0.988,0.442 -0.988,0.987l0,1.23c0,0.545 0.442,0.987 0.988,0.987l10.432,0Z"/><path d="M94.038,14.203c0.535,0.014 0.962,0.452 0.962,0.987l-0,1.229c-0,0.267 -0.108,0.522 -0.298,0.707c-0.191,0.186 -0.449,0.287 -0.715,0.28c-2.348,-0.061 -8.135,-0.211 -10.432,-0.27c-0.535,-0.014 -0.962,-0.452 -0.962,-0.987l0,-1.229c0,-0.267 0.108,-0.522 0.299,-0.707c0.19,-0.186 0.448,-0.287 0.714,-0.28c2.348,0.061 8.135,0.211 10.432,0.27Z"/><path d="M94.038,70.288c0.535,-0.013 0.962,-0.451 0.962,-0.987l0,-1.229c-0,-0.266 -0.108,-0.521 -0.298,-0.707c-0.191,-0.186 -0.449,-0.287 -0.715,-0.28c-2.348,0.061 -8.135,0.211 -10.432,0.271c-0.535,0.014 -0.962,0.452 -0.962,0.987l0,1.229c0,0.266 0.108,0.521 0.299,0.707c0.19,0.186 0.448,0.287 0.714,0.28c2.348,-0.061 8.135,-0.211 10.432,-0.271Z"/><path d="M94.013,74.865c0.545,-0 0.987,-0.442 0.987,-0.988l0,-1.229c-0,-0.546 -0.442,-0.988 -0.987,-0.988l-10.432,0c-0.546,0 -0.988,0.442 -0.988,0.988l0,1.229c0,0.546 0.442,0.988 0.988,0.988l10.432,-0Z"/><path d="M94.038,76.236c0.535,0.014 0.962,0.452 0.962,0.988l-0,1.228c-0,0.267 -0.108,0.522 -0.298,0.708c-0.191,0.185 -0.449,0.286 -0.715,0.279c-2.348,-0.06 -8.135,-0.211 -10.432,-0.27c-0.535,-0.014 -0.962,-0.452 -0.962,-0.987l0,-1.229c0,-0.266 0.108,-0.521 0.299,-0.707c0.19,-0.186 0.448,-0.287 0.714,-0.28c2.348,0.061 8.135,0.211 10.432,0.27Z"/><path d="M31.953,39.298c0.535,-0.014 0.962,-0.452 0.962,-0.987l-0,-1.229c-0,-0.266 -0.108,-0.521 -0.298,-0.707c-0.191,-0.186 -0.449,-0.287 -0.715,-0.28c-2.348,0.061 -8.135,0.211 -10.432,0.27c-0.535,0.014 -0.962,0.452 -0.962,0.987l0,1.229c0,0.267 0.108,0.522 0.299,0.708c0.19,0.185 0.448,0.286 0.714,0.279c2.348,-0.06 8.135,-0.211 10.432,-0.27Z"/><path d="M31.928,43.874c0.545,-0 0.987,-0.442 0.987,-0.987l-0,-1.23c-0,-0.545 -0.442,-0.987 -0.987,-0.987l-10.432,-0c-0.546,-0 -0.988,0.442 -0.988,0.987l0,1.23c0,0.545 0.442,0.987 0.988,0.987l10.432,-0Z"/><path d="M31.953,45.246c0.535,0.014 0.962,0.451 0.962,0.987l-0,1.229c-0,0.266 -0.108,0.521 -0.298,0.707c-0.191,0.186 -0.449,0.287 -0.715,0.28c-2.348,-0.061 -8.135,-0.211 -10.432,-0.271c-0.535,-0.014 -0.962,-0.451 -0.962,-0.987l0,-1.229c0,-0.266 0.108,-0.521 0.299,-0.707c0.19,-0.186 0.448,-0.287 0.714,-0.28c2.348,0.061 8.135,0.211 10.432,0.271Z"/><path d="M94.038,39.298c0.535,-0.014 0.962,-0.452 0.962,-0.987l0,-1.229c-0,-0.266 -0.108,-0.521 -0.298,-0.707c-0.191,-0.186 -0.449,-0.287 -0.715,-0.28c-2.348,0.061 -8.135,0.211 -10.432,0.27c-0.535,0.014 -0.962,0.452 -0.962,0.987l0,1.229c0,0.267 0.108,0.522 0.299,0.708c0.19,0.185 0.448,0.286 0.714,0.279c2.348,-0.06 8.135,-0.211 10.432,-0.27Z"/><path d="M94.013,43.874c0.545,-0 0.987,-0.442 0.987,-0.987l0,-1.23c-0,-0.545 -0.442,-0.987 -0.987,-0.987l-10.432,-0c-0.546,-0 -0.988,0.442 -0.988,0.987l0,1.23c0,0.545 0.442,0.987 0.988,0.987l10.432,-0Z"/><path d="M94.038,45.246c0.535,0.014 0.962,0.451 0.962,0.987l-0,1.229c-0,0.266 -0.108,0.521 -0.298,0.707c-0.191,0.186 -0.449,0.287 -0.715,0.28c-2.348,-0.061 -8.135,-0.211 -10.432,-0.271c-0.535,-0.014 -0.962,-0.451 -0.962,-0.987l0,-1.229c0,-0.266 0.108,-0.521 0.299,-0.707c0.19,-0.186 0.448,-0.287 0.714,-0.28c2.348,0.061 8.135,0.211 10.432,0.271Z"/><path d="M62.996,8.255c0.535,-0.014 0.961,-0.451 0.961,-0.987l0,-1.229c0,-0.266 -0.107,-0.521 -0.298,-0.707c-0.191,-0.186 -0.448,-0.287 -0.715,-0.28c-2.347,0.061 -8.135,0.211 -10.431,0.271c-0.536,0.014 -0.962,0.452 -0.962,0.987l-0,1.229c-0,0.266 0.107,0.521 0.298,0.707c0.191,0.186 0.449,0.287 0.715,0.28c2.348,-0.061 8.135,-0.211 10.432,-0.271Z"/><path d="M62.97,12.831c0.545,0 0.987,-0.442 0.987,-0.987l0,-1.23c0,-0.545 -0.442,-0.987 -0.987,-0.987l-10.432,0c-0.545,0 -0.987,0.442 -0.987,0.987l-0,1.23c-0,0.545 0.442,0.987 0.987,0.987l10.432,0Z"/><path d="M62.996,14.203c0.535,0.014 0.961,0.452 0.961,0.987l0,1.229c0,0.267 -0.107,0.522 -0.298,0.707c-0.191,0.186 -0.448,0.287 -0.715,0.28c-2.347,-0.061 -8.135,-0.211 -10.431,-0.27c-0.536,-0.014 -0.962,-0.452 -0.962,-0.987l-0,-1.229c-0,-0.267 0.107,-0.522 0.298,-0.707c0.191,-0.186 0.449,-0.287 0.715,-0.28c2.348,0.061 8.135,0.211 10.432,0.27Z"/><path d="M62.996,70.288c0.535,-0.013 0.961,-0.451 0.961,-0.987l0,-1.229c0,-0.266 -0.107,-0.521 -0.298,-0.707c-0.191,-0.186 -0.448,-0.287 -0.715,-0.28c-2.347,0.061 -8.135,0.211 -10.431,0.271c-0.536,0.014 -0.962,0.452 -0.962,0.987l-0,1.229c-0,0.266 0.107,0.521 0.298,0.707c0.191,0.186 0.449,0.287 0.715,0.28c2.348,-0.061 8.135,-0.211 10.432,-0.271Z"/><path d="M62.97,74.865c0.545,-0 0.987,-0.442 0.987,-0.988l0,-1.229c0,-0.546 -0.442,-0.988 -0.987,-0.988l-10.432,0c-0.545,0 -0.987,0.442 -0.987,0.988l-0,1.229c-0,0.546 0.442,0.988 0.987,0.988l10.432,-0Z"/><path d="M62.996,76.236c0.535,0.014 0.961,0.452 0.961,0.988l0,1.228c0,0.267 -0.107,0.522 -0.298,0.708c-0.191,0.185 -0.448,0.286 -0.715,0.279c-2.347,-0.06 -8.135,-0.211 -10.431,-0.27c-0.536,-0.014 -0.962,-0.452 -0.962,-0.987l-0,-1.229c-0,-0.266 0.107,-0.521 0.298,-0.707c0.191,-0.186 0.449,-0.287 0.715,-0.28c2.348,0.061 8.135,0.211 10.432,0.27Z"/><path d="M62.996,39.298c0.535,-0.014 0.961,-0.452 0.961,-0.987l0,-1.229c0,-0.266 -0.107,-0.521 -0.298,-0.707c-0.191,-0.186 -0.448,-0.287 -0.715,-0.28c-2.347,0.061 -8.135,0.211 -10.431,0.27c-0.536,0.014 -0.962,0.452 -0.962,0.987l-0,1.229c-0,0.267 0.107,0.522 0.298,0.708c0.191,0.185 0.449,0.286 0.715,0.279c2.348,-0.06 8.135,-0.211 10.432,-0.27Z"/><path d="M62.97,43.874c0.545,-0 0.987,-0.442 0.987,-0.987l0,-1.23c0,-0.545 -0.442,-0.987 -0.987,-0.987l-10.432,-0c-0.545,-0 -0.987,0.442 -0.987,0.987l-0,1.23c-0,0.545 0.442,0.987 0.987,0.987l10.432,-0Z"/><path d="M62.996,45.246c0.535,0.014 0.961,0.451 0.961,0.987l0,1.229c0,0.266 -0.107,0.521 -0.298,0.707c-0.191,0.186 -0.448,0.287 -0.715,0.28c-2.347,-0.061 -8.135,-0.211 -10.431,-0.271c-0.536,-0.014 -0.962,-0.451 -0.962,-0.987l-0,-1.229c-0,-0.266 0.107,-0.521 0.298,-0.707c0.191,-0.186 0.449,-0.287 0.715,-0.28c2.348,0.061 8.135,0.211 10.432,0.271Z"/><path d="M5.962,29.712c-0.535,0.013 -0.962,0.451 -0.962,0.987l0,1.229c0,0.266 0.108,0.521 0.298,0.707c0.191,0.186 0.449,0.287 0.715,0.28c2.348,-0.061 8.135,-0.211 10.432,-0.271c0.535,-0.014 0.962,-0.452 0.962,-0.987l-0,-1.229c-0,-0.266 -0.108,-0.521 -0.299,-0.707c-0.19,-0.186 -0.448,-0.287 -0.714,-0.28c-2.348,0.061 -8.135,0.211 -10.432,0.271Z"/><path d="M5.987,25.135c-0.545,0 -0.987,0.442 -0.987,0.988l0,1.229c0,0.546 0.442,0.988 0.987,0.988l10.432,-0c0.546,-0 0.988,-0.442 0.988,-0.988l-0,-1.229c-0,-0.546 -0.442,-0.988 -0.988,-0.988l-10.432,0Z"/><path d="M5.962,23.764c-0.535,-0.014 -0.962,-0.452 -0.962,-0.988l0,-1.228c0,-0.267 0.108,-0.522 0.298,-0.708c0.191,-0.185 0.449,-0.286 0.715,-0.279c2.348,0.06 8.135,0.211 10.432,0.27c0.535,0.014 0.962,0.452 0.962,0.987l-0,1.229c-0,0.266 -0.108,0.521 -0.299,0.707c-0.19,0.186 -0.448,0.287 -0.714,0.28c-2.348,-0.061 -8.135,-0.211 -10.432,-0.27Z"/><path d="M5.962,91.745c-0.535,0.014 -0.962,0.451 -0.962,0.987l0,1.229c0,0.266 0.108,0.521 0.298,0.707c0.191,0.186 0.449,0.287 0.715,0.28c2.348,-0.061 8.135,-0.211 10.432,-0.271c0.535,-0.014 0.962,-0.452 0.962,-0.987l-0,-1.229c-0,-0.266 -0.108,-0.521 -0.299,-0.707c-0.19,-0.186 -0.448,-0.287 -0.714,-0.28c-2.348,0.061 -8.135,0.211 -10.432,0.271Z"/><path d="M5.987,87.169c-0.545,-0 -0.987,0.442 -0.987,0.987l0,1.23c0,0.545 0.442,0.987 0.987,0.987l10.432,-0c0.546,-0 0.988,-0.442 0.988,-0.987l-0,-1.23c-0,-0.545 -0.442,-0.987 -0.988,-0.987l-10.432,-0Z"/><path d="M5.962,85.797c-0.535,-0.014 -0.962,-0.452 -0.962,-0.987l0,-1.229c0,-0.267 0.108,-0.522 0.298,-0.707c0.191,-0.186 0.449,-0.287 0.715,-0.28c2.348,0.061 8.135,0.211 10.432,0.27c0.535,0.014 0.962,0.452 0.962,0.987l-0,1.229c-0,0.267 -0.108,0.522 -0.299,0.707c-0.19,0.186 -0.448,0.287 -0.714,0.28c-2.348,-0.061 -8.135,-0.211 -10.432,-0.27Z"/><path d="M68.047,29.712c-0.535,0.013 -0.962,0.451 -0.962,0.987l0,1.229c0,0.266 0.108,0.521 0.298,0.707c0.191,0.186 0.449,0.287 0.715,0.28c2.348,-0.061 8.135,-0.211 10.432,-0.271c0.535,-0.014 0.962,-0.452 0.962,-0.987l-0,-1.229c-0,-0.266 -0.108,-0.521 -0.299,-0.707c-0.19,-0.186 -0.448,-0.287 -0.714,-0.28c-2.348,0.061 -8.135,0.211 -10.432,0.271Z"/><path d="M68.072,25.135c-0.545,0 -0.987,0.442 -0.987,0.988l0,1.229c0,0.546 0.442,0.988 0.987,0.988l10.432,-0c0.546,-0 0.988,-0.442 0.988,-0.988l-0,-1.229c-0,-0.546 -0.442,-0.988 -0.988,-0.988l-10.432,0Z"/><path d="M68.047,23.764c-0.535,-0.014 -0.962,-0.452 -0.962,-0.988l0,-1.228c0,-0.267 0.108,-0.522 0.298,-0.708c0.191,-0.185 0.449,-0.286 0.715,-0.279c2.348,0.06 8.135,0.211 10.432,0.27c0.535,0.014 0.962,0.452 0.962,0.987l-0,1.229c-0,0.266 -0.108,0.521 -0.299,0.707c-0.19,0.186 -0.448,0.287 -0.714,0.28c-2.348,-0.061 -8.135,-0.211 -10.432,-0.27Z"/><path d="M68.047,91.745c-0.535,0.014 -0.962,0.451 -0.962,0.987l0,1.229c0,0.266 0.108,0.521 0.298,0.707c0.191,0.186 0.449,0.287 0.715,0.28c2.348,-0.061 8.135,-0.211 10.432,-0.271c0.535,-0.014 0.962,-0.452 0.962,-0.987l-0,-1.229c-0,-0.266 -0.108,-0.521 -0.299,-0.707c-0.19,-0.186 -0.448,-0.287 -0.714,-0.28c-2.348,0.061 -8.135,0.211 -10.432,0.271Z"/><path d="M68.072,87.169c-0.545,-0 -0.987,0.442 -0.987,0.987l0,1.23c0,0.545 0.442,0.987 0.987,0.987l10.432,-0c0.546,-0 0.988,-0.442 0.988,-0.987l-0,-1.23c-0,-0.545 -0.442,-0.987 -0.988,-0.987l-10.432,-0Z"/><path d="M68.047,85.797c-0.535,-0.014 -0.962,-0.452 -0.962,-0.987l0,-1.229c0,-0.267 0.108,-0.522 0.298,-0.707c0.191,-0.186 0.449,-0.287 0.715,-0.28c2.348,0.061 8.135,0.211 10.432,0.27c0.535,0.014 0.962,0.452 0.962,0.987l-0,1.229c-0,0.267 -0.108,0.522 -0.299,0.707c-0.19,0.186 -0.448,0.287 -0.714,0.28c-2.348,-0.061 -8.135,-0.211 -10.432,-0.27Z"/><path d="M5.962,60.754c-0.535,0.014 -0.962,0.452 -0.962,0.987l0,1.229c0,0.266 0.108,0.521 0.298,0.707c0.191,0.186 0.449,0.287 0.715,0.28c2.348,-0.061 8.135,-0.211 10.432,-0.27c0.535,-0.014 0.962,-0.452 0.962,-0.988l-0,-1.228c-0,-0.267 -0.108,-0.522 -0.299,-0.708c-0.19,-0.186 -0.448,-0.286 -0.714,-0.28c-2.348,0.061 -8.135,0.211 -10.432,0.271Z"/><path d="M5.987,56.178c-0.545,-0 -0.987,0.442 -0.987,0.987l0,1.23c0,0.545 0.442,0.987 0.987,0.987l10.432,0c0.546,0 0.988,-0.442 0.988,-0.987l-0,-1.23c-0,-0.545 -0.442,-0.987 -0.988,-0.987l-10.432,-0Z"/><path d="M5.962,54.806c-0.535,-0.014 -0.962,-0.452 -0.962,-0.987l0,-1.229c0,-0.266 0.108,-0.521 0.298,-0.707c0.191,-0.186 0.449,-0.287 0.715,-0.28c2.348,0.061 8.135,0.211 10.432,0.271c0.535,0.014 0.962,0.451 0.962,0.987l-0,1.229c-0,0.266 -0.108,0.521 -0.299,0.707c-0.19,0.186 -0.448,0.287 -0.714,0.28c-2.348,-0.061 -8.135,-0.211 -10.432,-0.271Z"/><path d="M68.047,60.754c-0.535,0.014 -0.962,0.452 -0.962,0.987l0,1.229c0,0.266 0.108,0.521 0.298,0.707c0.191,0.186 0.449,0.287 0.715,0.28c2.348,-0.061 8.135,-0.211 10.432,-0.27c0.535,-0.014 0.962,-0.452 0.962,-0.988l-0,-1.228c-0,-0.267 -0.108,-0.522 -0.299,-0.708c-0.19,-0.186 -0.448,-0.286 -0.714,-0.28c-2.348,0.061 -8.135,0.211 -10.432,0.271Z"/><path d="M68.072,56.178c-0.545,-0 -0.987,0.442 -0.987,0.987l0,1.23c0,0.545 0.442,0.987 0.987,0.987l10.432,0c0.546,0 0.988,-0.442 0.988,-0.987l-0,-1.23c-0,-0.545 -0.442,-0.987 -0.988,-0.987l-10.432,-0Z"/><path d="M68.047,54.806c-0.535,-0.014 -0.962,-0.452 -0.962,-0.987l0,-1.229c0,-0.266 0.108,-0.521 0.298,-0.707c0.191,-0.186 0.449,-0.287 0.715,-0.28c2.348,0.061 8.135,0.211 10.432,0.271c0.535,0.014 0.962,0.451 0.962,0.987l-0,1.229c-0,0.266 -0.108,0.521 -0.299,0.707c-0.19,0.186 -0.448,0.287 -0.714,0.28c-2.348,-0.061 -8.135,-0.211 -10.432,-0.271Z"/><path d="M37.004,29.712c-0.535,0.013 -0.961,0.451 -0.961,0.987l-0,1.229c-0,0.266 0.107,0.521 0.298,0.707c0.191,0.186 0.448,0.287 0.715,0.28c2.347,-0.061 8.135,-0.211 10.431,-0.271c0.536,-0.014 0.962,-0.452 0.962,-0.987l0,-1.229c0,-0.266 -0.107,-0.521 -0.298,-0.707c-0.191,-0.186 -0.449,-0.287 -0.715,-0.28c-2.348,0.061 -8.135,0.211 -10.432,0.271Z"/><path d="M37.03,25.135c-0.545,0 -0.987,0.442 -0.987,0.988l-0,1.229c-0,0.546 0.442,0.988 0.987,0.988l10.432,-0c0.545,-0 0.987,-0.442 0.987,-0.988l0,-1.229c0,-0.546 -0.442,-0.988 -0.987,-0.988l-10.432,0Z"/><path d="M37.004,23.764c-0.535,-0.014 -0.961,-0.452 -0.961,-0.988l-0,-1.228c-0,-0.267 0.107,-0.522 0.298,-0.708c0.191,-0.185 0.448,-0.286 0.715,-0.279c2.347,0.06 8.135,0.211 10.431,0.27c0.536,0.014 0.962,0.452 0.962,0.987l0,1.229c0,0.266 -0.107,0.521 -0.298,0.707c-0.191,0.186 -0.449,0.287 -0.715,0.28c-2.348,-0.061 -8.135,-0.211 -10.432,-0.27Z"/><path d="M37.004,91.745c-0.535,0.014 -0.961,0.451 -0.961,0.987l-0,1.229c-0,0.266 0.107,0.521 0.298,0.707c0.191,0.186 0.448,0.287 0.715,0.28c2.347,-0.061 8.135,-0.211 10.431,-0.271c0.536,-0.014 0.962,-0.452 0.962,-0.987l0,-1.229c0,-0.266 -0.107,-0.521 -0.298,-0.707c-0.191,-0.186 -0.449,-0.287 -0.715,-0.28c-2.348,0.061 -8.135,0.211 -10.432,0.271Z"/><path d="M37.03,87.169c-0.545,-0 -0.987,0.442 -0.987,0.987l-0,1.23c-0,0.545 0.442,0.987 0.987,0.987l10.432,-0c0.545,-0 0.987,-0.442 0.987,-0.987l0,-1.23c0,-0.545 -0.442,-0.987 -0.987,-0.987l-10.432,-0Z"/><path d="M37.004,85.797c-0.535,-0.014 -0.961,-0.452 -0.961,-0.987l-0,-1.229c-0,-0.267 0.107,-0.522 0.298,-0.707c0.191,-0.186 0.448,-0.287 0.715,-0.28c2.347,0.061 8.135,0.211 10.431,0.27c0.536,0.014 0.962,0.452 0.962,0.987l0,1.229c0,0.267 -0.107,0.522 -0.298,0.707c-0.191,0.186 -0.449,0.287 -0.715,0.28c-2.348,-0.061 -8.135,-0.211 -10.432,-0.27Z"/><path d="M37.004,60.754c-0.535,0.014 -0.961,0.452 -0.961,0.987l-0,1.229c-0,0.266 0.107,0.521 0.298,0.707c0.191,0.186 0.448,0.287 0.715,0.28c2.347,-0.061 8.135,-0.211 10.431,-0.27c0.536,-0.014 0.962,-0.452 0.962,-0.988l0,-1.228c0,-0.267 -0.107,-0.522 -0.298,-0.708c-0.191,-0.186 -0.449,-0.286 -0.715,-0.28c-2.348,0.061 -8.135,0.211 -10.432,0.271Z"/><path d="M37.03,56.178c-0.545,-0 -0.987,0.442 -0.987,0.987l-0,1.23c-0,0.545 0.442,0.987 0.987,0.987l10.432,0c0.545,0 0.987,-0.442 0.987,-0.987l0,-1.23c0,-0.545 -0.442,-0.987 -0.987,-0.987l-10.432,-0Z"/><path d="M37.004,54.806c-0.535,-0.014 -0.961,-0.452 -0.961,-0.987l-0,-1.229c-0,-0.266 0.107,-0.521 0.298,-0.707c0.191,-0.186 0.448,-0.287 0.715,-0.28c2.347,0.061 8.135,0.211 10.431,0.271c0.536,0.014 0.962,0.451 0.962,0.987l0,1.229c0,0.266 -0.107,0.521 -0.298,0.707c-0.191,0.186 -0.449,0.287 -0.715,0.28c-2.348,-0.061 -8.135,-0.211 -10.432,-0.271Z"/></g><text x="0" y="115" fill="#000000" font-size="5px" font-weight="bold" font-family="'Helvetica Neue', Helvetica, Arial-Unicode, Arial, Sans-serif">Created by Zach Bogart</text><text x="0" y="120" fill="#000000" font-size="5px" font-weight="bold" font-family="'Helvetica Neue', Helvetica, Arial-Unicode, Arial, Sans-serif">from the Noun Project</text></svg>